<svg width="214" height="203" viewBox="0 0 214 203" fill="none" xmlns="http://www.w3.org/2000/svg">
<rect width="214" height="203" fill="#F5F5F5"/>
<path d="M47.5974 52.6564C58.5507 40.5459 73.2537 32.614 89.259 30.1802C105.264 27.7465 121.606 30.958 135.566 39.2801C149.526 47.6024 160.262 60.5339 165.986 75.9218L157.084 79.3435C152.129 66.0234 142.836 54.8297 130.752 47.6257C118.668 40.4217 104.521 37.6423 90.6668 39.749C76.8122 41.8557 64.0848 48.7219 54.6034 59.2051C45.1221 69.6883 39.4579 83.1561 38.5541 97.3669C37.6503 111.578 41.5619 125.675 49.6365 137.312C57.7111 148.949 69.4622 157.424 82.9343 161.327C96.4068 165.229 110.788 164.324 123.684 158.762C136.58 153.2 147.213 143.315 153.814 130.755L162.208 135.314C154.583 149.824 142.299 161.243 127.401 167.669C112.504 174.094 95.8904 175.14 80.3267 170.631C64.7629 166.123 51.1867 156.332 41.8586 142.889C32.5306 129.445 28.0126 113.159 29.0567 96.7424C30.1008 80.3255 36.6442 64.7669 47.5974 52.6564Z" fill="url(#paint0_linear_0_1)"/>
<path d="M47.5974 52.6564C58.5507 40.5459 73.2537 32.614 89.259 30.1802C105.264 27.7465 121.606 30.958 135.566 39.2801C149.526 47.6024 160.262 60.5339 165.986 75.9218L157.084 79.3435C152.129 66.0234 142.836 54.8297 130.752 47.6257C118.668 40.4217 104.521 37.6423 90.6668 39.749C76.8122 41.8557 64.0848 48.7219 54.6034 59.2051C45.1221 69.6883 39.4579 83.1561 38.5541 97.3669C37.6503 111.578 41.5619 125.675 49.6365 137.312C57.7111 148.949 69.4622 157.424 82.9343 161.327C96.4068 165.229 110.788 164.324 123.684 158.762C136.58 153.2 147.213 143.315 153.814 130.755L162.208 135.314C154.583 149.824 142.299 161.243 127.401 167.669C112.504 174.094 95.8904 175.14 80.3267 170.631C64.7629 166.123 51.1867 156.332 41.8586 142.889C32.5306 129.445 28.0126 113.159 29.0567 96.7424C30.1008 80.3255 36.6442 64.7669 47.5974 52.6564Z" stroke="white"/>
<path d="M142.816 125C141.365 125 140 124.979 138.72 124.936C137.483 124.851 136.416 124.765 135.52 124.68C134.325 124.467 133.579 124.275 133.28 124.104C132.725 123.848 132.448 123.507 132.448 123.08C132.448 122.483 132.448 121.8 132.448 121.032C132.448 120.221 132.448 119.517 132.448 118.92C132.448 118.28 132.448 117.917 132.448 117.832C132.448 117.107 132.512 116.573 132.64 116.232C132.811 115.891 133.131 115.549 133.6 115.208C134.197 114.739 135.157 114.227 136.48 113.672C137.803 113.117 139.147 112.179 140.512 110.856C140.597 110.728 140.853 110.451 141.28 110.024C141.749 109.597 142.155 109.235 142.496 108.936C143.093 108.424 143.477 107.997 143.648 107.656C143.861 107.315 144.288 106.675 144.928 105.736C145.269 105.181 145.376 104.669 145.248 104.2C145.12 103.731 145.056 103.24 145.056 102.728C145.056 101.533 144.693 100.701 143.968 100.232C143.285 99.7627 142.069 99.528 140.32 99.528C139.936 99.528 139.488 99.5493 138.976 99.592C138.507 99.6347 137.824 99.72 136.928 99.848C136.544 99.9333 136.16 100.061 135.776 100.232C135.392 100.403 134.773 100.701 133.92 101.128C133.664 101.299 133.451 101.32 133.28 101.192C133.109 101.021 133.024 100.765 133.024 100.424C132.939 99.784 132.875 99.1653 132.832 98.568C132.789 97.928 132.725 97.2453 132.64 96.52L132.448 93.192L132.384 91.848L132.32 90.696C132.32 90.568 132.32 90.44 132.32 90.312C132.32 90.184 132.512 90.0773 132.896 89.992L135.136 88.968C139.872 87.4747 144.672 86.728 149.536 86.728C151.669 86.728 153.696 86.9627 155.616 87.432C157.536 87.9013 159.179 88.5627 160.544 89.416C163.915 91.5067 165.6 94.664 165.6 98.888C165.6 101.149 164.853 103.347 163.36 105.48C161.909 107.613 159.605 109.789 156.448 112.008H161.76C163.125 112.008 164.107 112.157 164.704 112.456C165.344 112.712 165.664 113.139 165.664 113.736C165.664 114.419 165.643 115.101 165.6 115.784C165.6 116.467 165.579 117.171 165.536 117.896V121.224C165.536 122.547 165.28 123.464 164.768 123.976C164.299 124.488 163.445 124.744 162.208 124.744C162.08 124.872 161.803 124.936 161.376 124.936C161.12 124.979 160.715 125 160.16 125C159.648 125 158.453 125 156.576 125H142.816ZM178.849 126.216C178.166 126.216 177.228 126.131 176.033 125.96C174.881 125.789 173.921 125.597 173.153 125.384C172.726 125.256 172.428 125.171 172.257 125.128C172.086 125.085 171.958 125.043 171.873 125C171.489 124.957 171.276 124.851 171.233 124.68L169.889 124.296C169.59 124.211 169.334 124.125 169.121 124.04C168.908 123.912 168.694 123.827 168.481 123.784L166.753 123.4L167.137 121.224L167.073 118.92L167.201 117.128L167.393 114.568C168.118 114.739 169.164 114.909 170.529 115.08C171.894 115.251 173.324 115.4 174.817 115.528C176.353 115.613 177.654 115.656 178.721 115.656C181.878 115.656 183.457 114.568 183.457 112.392C183.457 110.728 182.134 109.789 179.489 109.576C178.636 109.576 177.526 109.597 176.161 109.64C174.796 109.64 173.43 109.661 172.065 109.704C170.742 109.704 169.654 109.725 168.801 109.768L168.609 106.568L168.673 105.544V101.448C168.63 101.363 168.609 101.277 168.609 101.192C168.609 101.107 168.609 100.915 168.609 100.616C168.438 100.147 168.353 99.144 168.353 97.608V88.328C168.438 88.1147 168.63 87.9013 168.929 87.688H169.057C169.228 87.7733 169.313 87.816 169.313 87.816C169.74 87.816 170.017 87.7947 170.145 87.752C170.23 87.7093 170.465 87.688 170.849 87.688C171.318 87.56 171.809 87.496 172.321 87.496C172.662 87.496 173.025 87.5173 173.409 87.56C173.836 87.56 174.284 87.5813 174.753 87.624C175.052 87.6667 175.414 87.688 175.841 87.688C176.268 87.688 176.758 87.688 177.313 87.688L177.569 87.56H183.649C183.734 87.6453 183.884 87.688 184.097 87.688H184.609C184.822 87.6027 185.036 87.56 185.249 87.56L186.017 87.688H196.129C196.214 87.8587 196.364 87.944 196.577 87.944C196.748 87.944 196.854 87.9227 196.897 87.88C197.238 87.88 197.473 87.8587 197.601 87.816C197.729 87.7733 197.878 87.7307 198.049 87.688H198.369C198.625 87.688 198.838 87.944 199.009 88.456C199.222 88.968 199.393 89.992 199.521 91.528C199.649 93.064 199.713 94.8773 199.713 96.968C199.713 97.352 199.5 97.5867 199.073 97.672C198.902 97.7147 198.753 97.7573 198.625 97.8C198.54 97.8 198.433 97.8 198.305 97.8C198.134 97.8427 197.942 97.8427 197.729 97.8H196.129C195.916 97.8 195.681 97.8 195.425 97.8C195.212 97.8 194.913 97.8427 194.529 97.928C192.438 97.928 190.966 97.928 190.113 97.928C189.26 97.928 188.79 97.9493 188.705 97.992C188.577 98.0347 188.172 98.056 187.489 98.056H186.273C185.889 98.056 185.654 98.0133 185.569 97.928L185.057 98.248L184.801 99.464C184.63 100.104 184.502 101.128 184.417 102.536C185.142 102.579 185.804 102.6 186.401 102.6C187.041 102.6 187.894 102.6 188.961 102.6C190.07 102.557 191.649 102.6 193.697 102.728L194.081 102.856C194.849 102.984 195.574 103.261 196.257 103.688C196.598 103.901 196.769 104.093 196.769 104.264V104.648C197.494 104.648 198.198 105.288 198.881 106.568L199.649 108.104C199.692 108.531 199.82 108.872 200.033 109.128C200.289 109.725 200.502 110.387 200.673 111.112C200.844 111.837 200.929 112.456 200.929 112.968C200.929 114.419 200.822 115.677 200.609 116.744C200.396 117.768 199.969 119.048 199.329 120.584C198.305 122.547 197.388 123.635 196.577 123.848C195.468 124.403 194.316 124.851 193.121 125.192C191.969 125.576 190.881 125.811 189.857 125.896C189.302 125.939 188.62 125.981 187.809 126.024C186.998 126.067 185.889 126.088 184.481 126.088C183.116 126.131 181.238 126.173 178.849 126.216Z" fill="#007AFF"/>
<line x1="103" y1="40" x2="103" y2="56" stroke="#007AFF" stroke-width="6"/>
<path d="M39 108H55" stroke="#007AFF" stroke-width="6"/>
<path d="M102 151V167" stroke="#007AFF" stroke-width="6"/>
<g filter="url(#filter0_d_0_1)">
<path d="M105 108C105 109.381 103.881 110.5 102.5 110.5C101.119 110.5 100 109.381 100 108C100 106.619 101.119 105.5 102.5 105.5C103.881 105.5 105 106.619 105 108Z" fill="#007AFF"/>
</g>
<path d="M103 108H123.5" stroke="#007AFF"/>
<line x1="103" y1="40" x2="103" y2="56" stroke="#007AFF" stroke-width="6"/>
<g filter="url(#filter1_d_0_1)">
<path d="M105 108C105 109.381 103.881 110.5 102.5 110.5C101.119 110.5 100 109.381 100 108C100 106.619 101.119 105.5 102.5 105.5C103.881 105.5 105 106.619 105 108Z" fill="#007AFF"/>
</g>
<path d="M39 108H55" stroke="#007AFF" stroke-width="6"/>
<path d="M103 108H123.5" stroke="#007AFF"/>
<path d="M102 151V167" stroke="#007AFF" stroke-width="6"/>
<defs>
<filter id="filter0_d_0_1" x="96" y="105.5" width="13" height="13" filterUnits="userSpaceOnUse" color-interpolation-filters="sRGB">
<feFlood flood-opacity="0" result="BackgroundImageFix"/>
<feColorMatrix in="SourceAlpha" type="matrix" values="0 0 0 0 0 0 0 0 0 0 0 0 0 0 0 0 0 0 127 0" result="hardAlpha"/>
<feOffset dy="4"/>
<feGaussianBlur stdDeviation="2"/>
<feComposite in2="hardAlpha" operator="out"/>
<feColorMatrix type="matrix" values="0 0 0 0 0 0 0 0 0 0 0 0 0 0 0 0 0 0 0.25 0"/>
<feBlend mode="normal" in2="BackgroundImageFix" result="effect1_dropShadow_0_1"/>
<feBlend mode="normal" in="SourceGraphic" in2="effect1_dropShadow_0_1" result="shape"/>
</filter>
<filter id="filter1_d_0_1" x="96" y="105.5" width="13" height="13" filterUnits="userSpaceOnUse" color-interpolation-filters="sRGB">
<feFlood flood-opacity="0" result="BackgroundImageFix"/>
<feColorMatrix in="SourceAlpha" type="matrix" values="0 0 0 0 0 0 0 0 0 0 0 0 0 0 0 0 0 0 127 0" result="hardAlpha"/>
<feOffset dy="4"/>
<feGaussianBlur stdDeviation="2"/>
<feComposite in2="hardAlpha" operator="out"/>
<feColorMatrix type="matrix" values="0 0 0 0 0 0 0 0 0 0 0 0 0 0 0 0 0 0 0.25 0"/>
<feBlend mode="normal" in2="BackgroundImageFix" result="effect1_dropShadow_0_1"/>
<feBlend mode="normal" in="SourceGraphic" in2="effect1_dropShadow_0_1" result="shape"/>
</filter>
<linearGradient id="paint0_linear_0_1" x1="54.4952" y1="45.9906" x2="146.743" y2="155.296" gradientUnits="userSpaceOnUse">
<stop stop-color="#007AFF"/>
<stop offset="0.985577" stop-color="#4A8FE3"/>
</linearGradient>
</defs>
</svg>
